# xmcd
#
# Track frame offsets:
#	187
#	18255
#	34215
#	57687
#	72307
#	86757
#	107917
#	123525
#	139172
#	156872
#	170282
#
# Disc length: 2436 seconds
# Revision: 3
# Processed by: cddbd v1.5.2PL0 Copyright (c) Steve Scherf et al.
# Submitted via: dBpowerAMP V12.0
#
DISCID=9c09820b
DTITLE=Muddy Waters - Folk Singer [MFSL]
DYEAR=1964
DGENRE=Blues
TTITLE0=My Home Is In The Delta
TTITLE1=Long Distance
TTITLE2=My Captain
TTITLE3=Good Morning School Girl
TTITLE4=You Gonna Need My Help
TTITLE5=Cold Weather Blues
TTITLE6=Big Leg Woman
TTITLE7=Country Boy
TTITLE8=Feel Like Going Home
TTITLE9=You Can't Lose What You Ain't Never Had
TTITLE10=The Same Thing
EXTD=
EXTT0=
EXTT1=
EXTT2=
EXTT3=
EXTT4=
EXTT5=
EXTT6=
EXTT7=
EXTT8=
EXTT9=
EXTT10=
PLAYORDER=
